<?xml version="1.0" encoding="UTF-8" standalone="no"?>
<!-- Generator: Adobe Illustrator 27.5.0, SVG Export Plug-In . SVG Version: 6.00 Build 0)  -->

<svg
   version="1.1"
   id="Capa_1"
   x="0px"
   y="0px"
   viewBox="0 0 107.67633 122.39347"
   xml:space="preserve"
   sodipodi:docname="levita-logo-crop.svg"
   inkscape:version="1.1.2 (0a00cf5339, 2022-02-04)"
   width="107.67634"
   height="122.39347"
   xmlns:inkscape="http://www.inkscape.org/namespaces/inkscape"
   xmlns:sodipodi="http://sodipodi.sourceforge.net/DTD/sodipodi-0.dtd"
   xmlns="http://www.w3.org/2000/svg"
   xmlns:svg="http://www.w3.org/2000/svg"><defs
   id="defs101"><clipPath
     clipPathUnits="userSpaceOnUse"
     id="clipPath369"><rect
       style="fill:#0000ff;fill-rule:evenodd"
       id="rect371"
       width="126.37784"
       height="122.37888"
       x="0.015150521"
       y="-0.097428143" /></clipPath><clipPath
     clipPathUnits="userSpaceOnUse"
     id="clipPath688"><rect
       style="fill:#0000ff;fill-rule:evenodd"
       id="rect690"
       width="127.42925"
       height="136.55428"
       x="-11.179987"
       y="-7.443686" /></clipPath><clipPath
     clipPathUnits="userSpaceOnUse"
     id="clipPath796"><rect
       style="fill:#0000ff;fill-rule:evenodd"
       id="rect798"
       width="119.58549"
       height="132.20534"
       x="-11.633418"
       y="-5.4105153" /></clipPath></defs><sodipodi:namedview
   id="namedview99"
   pagecolor="#ffffff"
   bordercolor="#666666"
   borderopacity="1.0"
   inkscape:pageshadow="2"
   inkscape:pageopacity="0.0"
   inkscape:pagecheckerboard="0"
   showgrid="false"
   inkscape:zoom="4.5039578"
   inkscape:cx="48.290861"
   inkscape:cy="69.383421"
   inkscape:window-width="1920"
   inkscape:window-height="946"
   inkscape:window-x="0"
   inkscape:window-y="27"
   inkscape:window-maximized="1"
   inkscape:current-layer="Capa_1"
   inkscape:snap-global="true"
   inkscape:snap-others="true"
   fit-margin-top="0"
   fit-margin-left="0"
   fit-margin-right="0"
   fit-margin-bottom="0" />
<style
   type="text/css"
   id="style86">
	.st0{fill-rule:evenodd;clip-rule:evenodd;fill:#0FCCEA;}
	.st1{fill-rule:evenodd;clip-rule:evenodd;fill:#A7A9AC;}
</style>
<g
   id="g96"
   clip-path="url(#clipPath796)"
   transform="translate(-0.27573077,0.20123289)">
	<path
   class="st0"
   d="M 69.8,82.8 C 69.2,81.8 68.3,80.6 66.7,78.1 56.5,63.2 47,51.8 39.2,42.4 38,41 37.1,39.9 36.7,39.4 10.5,11.5 -11,9.1 6.8,46.1 c -15.4,22.1 29.9,80.6 54.7,68.7 28.1,20.2 24.9,-4.5 8.3,-32 z M 14.3,32.1 c 4,-3.1 14.5,3.3 26.3,15.2 -10.1,-7.1 -20.3,-9.9 -27.5,-6.8 -0.9,-4.1 -0.5,-7.1 1.2,-8.4 z m 11.3,58.1 v 0 C 17.8,80 13.9,68.8 14.7,60.4 24.5,76.7 41.4,97.5 54.4,108.9 45.6,108.7 34.3,101.7 25.6,90.2 Z m 36.7,16.4 c -0.5,0.4 -1,0.7 -1.6,1 C 46.5,97.2 25,69.7 17.4,52.6 v 0 c 5.8,-7.1 15.5,-5.2 25.5,1.4 -12,13.7 5.2,34.9 21.1,26.2 4.7,11.3 4.4,21.7 -1.7,26.4 z m 13.7,6.3 c -1.9,1.5 -5.4,0.8 -9.8,-1.7 5.4,-6.2 5.5,-17.5 0.8,-29.7 9.3,15.5 13.3,28.2 9,31.4 z"
   id="path88" />
	<path
   class="st1"
   d="M 151.3,99.3 C 151.2,97.2 151,94.6 151,92.8 v 0 c -1,3.3 -3.3,9.6 -4.6,13 H 145 c -1.2,-3.6 -3.4,-9.4 -4.2,-13 h -0.1 c -0.1,3.4 -0.4,9.5 -0.7,13.1 h -1.9 l 1.1,-15.1 h 2.5 c 1.1,3.2 3.4,9.3 4.1,12.4 v 0 c 0.7,-3 3.2,-9.3 4.3,-12.4 h 2.5 l 0.9,15.1 h -1.9 z m 27.3,0.4 c -0.6,-1.8 -1.9,-5.3 -2.3,-7.1 v 0 c -0.4,1.8 -1.7,5.3 -2.3,7.1 z m -5,1.5 -1.6,4.7 h -2 l 5.1,-15.1 h 2.3 l 5.1,15.1 h -2.1 l -1.6,-4.7 z m 37.3,4.1 c -16,6.2 -16.7,-19.1 -0.4,-13.9 L 210,93 c -11.6,-4.9 -12.8,14.8 -1,11.1 v -4.5 h -3.1 V 98 h 5 z m 17.8,0.7 V 90.9 h 2.1 c 1.9,3.1 6.2,9.4 7.5,12.5 h 0.1 c -0.3,-3.6 -0.2,-8.9 -0.2,-12.5 H 240 V 106 h -2 c -2,-3.3 -6,-9.3 -7.6,-12.7 h -0.1 c 0.2,3.1 0.1,9.2 0.1,12.7 z m 37.4,-7.1 h -5.8 v 5.4 h 6.5 v 1.6 h -8.5 v -15 h 8.2 v 1.7 h -6.2 v 4.8 h 5.8 c 0,-0.1 0,1.5 0,1.5 z m 21.3,-6.4 h -4.6 V 90.8 H 294 v 1.7 h -4.6 V 106 h -2 z m 23,13.5 V 90.9 h 2 V 106 Z m 30.8,-0.5 c -15.1,5.6 -15.1,-19.4 0,-14.2 l -0.5,1.6 c -11.7,-4.7 -11.8,15.9 0.1,11 z m 17.1,-1.9 c 4.1,3.2 10.5,-2 3.8,-4.6 -8.3,-2.7 -2,-11.2 4.2,-7.6 l -0.5,1.6 c -4.4,-2.7 -8.8,2.5 -2.7,4.5 8.5,3.1 1.4,12 -5.3,7.8 -0.1,-0.1 0.5,-1.7 0.5,-1.7 z"
   id="path90" />
	<path
   class="st0"
   d="m 136.8,23.5 h 13.3 v 47.8 h 23.5 v 11.2 h -36.8 z m 70.4,32.7 c 0.4,-11.6 -15.1,-11.3 -15.8,0 z m -15.7,9.1 c 0.8,10.2 16.9,8.9 23.9,6.3 l 1.8,9 c -43.6,16.7 -51.9,-39.5 -16.8,-42 16.1,-0.1 20.7,14.8 18.7,26.6 0,0.1 -27.6,0.1 -27.6,0.1 z m 44.4,-25.6 c 2,7.1 7.1,23.4 8.2,30.3 h 0.3 c 1.2,-6.9 6,-23.3 7.9,-30.3 h 14 L 250.4,82.6 H 237.1 L 221.5,39.8 Z m 37.7,42.8 V 39.7 h 13.3 v 42.8 c 0,0 -13.3,0 -13.3,0 z m 0,-48.1 V 21.1 h 13.3 v 13.3 z m 40,-6.3 v 11.6 h 9.5 v 9.8 h -9.5 V 65 c -0.5,7.4 4.2,8.3 9.2,7.2 l 0.1,10.1 C 297,89 300.4,67.7 300.5,49.5 h -5.7 v -9.8 h 5.7 v -8 z m 41.1,34.2 C 342,61 337.6,72.7 347.5,74.1 c 6.6,0 7.7,-6.5 7.2,-11.8 z m 12.8,9.9 c 0,4 0.2,8 0.7,10.3 h -12 l -0.8,-4.3 h -0.3 c -26.6,21 -41.5,-26.2 -1,-24.3 1.3,-8.6 -15.2,-6.4 -19.6,-2.9 L 332,42.4 c 13.4,-7.3 36.9,-5.3 35.4,14.7 0.1,0.1 0.1,15.1 0.1,15.1 z m 5.8,-27.5 c 2.8,0.4 2.8,-1.8 0,-1.4 z m -0.7,2.7 v -4.8 c 0.7,0 2.3,-0.1 2.8,0.1 1.4,0.5 0.9,2.5 -0.5,2.5 0.7,0.3 1.2,1.4 1.7,2.1 h -0.9 c -0.5,-0.9 -1,-2.3 -2.3,-2 v 2 z m 1.9,-6.2 c -6.1,0.2 -3.6,9.8 1.8,6.9 3.3,-1.7 1.9,-7 -1.8,-6.9 z m 0,-0.7 c 7.3,0.2 4.3,11.7 -2.2,8.3 -3.9,-2.1 -2.2,-8.4 2.2,-8.3 z"
   id="path92" />
	<path
   class="st0"
   d="M 102.8,83.5 C 121,62.9 76.9,3.3 51.5,12.2 20.7,-15 17.2,6.4 37,39.2 c 0.4,0.5 1.2,1.7 2.2,3.3 6.9,10.1 15.3,22.3 26.9,36.1 1.9,2.3 2.9,3.4 3.7,4.3 21.9,23.3 44.9,33.1 33,0.6 z M 44.5,16.8 c -4.9,6.1 -5.1,16.7 -1,28.4 C 35.2,30.5 31.9,18.8 36,15.7 c 1.7,-1.3 4.7,-0.9 8.5,1.1 z M 99.1,75 C 91.7,59.4 76.3,37.5 63.2,23.7 c 8.2,1.6 18,8.3 25.7,18.6 v 0 C 97.6,53.8 101.2,66.6 99.1,75 Z M 68.9,76.5 C 81.6,63.6 65.8,41.3 49.4,49 45.8,37.6 46.6,27.8 55,24.1 v 0 c 14.3,12.1 35,40.2 41,56.7 -0.4,0.5 -0.9,0.9 -1.4,1.2 -6,4.6 -16.2,2.1 -25.7,-5.5 z m 0.4,3.3 c 10.5,7.8 21.4,10.8 28.8,7.3 1.2,4.9 1,8.4 -1,9.9 -4.3,3.2 -15.5,-4.1 -27.8,-17.2 z"
   id="path94" />
</g>
</svg>
