<?xml version="1.0" encoding="utf-8"?>
<!-- Generator: Adobe Illustrator 27.5.0, SVG Export Plug-In . SVG Version: 6.00 Build 0)  -->
<svg version="1.1" id="Capa_1" xmlns="http://www.w3.org/2000/svg" xmlns:xlink="http://www.w3.org/1999/xlink" x="0px" y="0px"
	 viewBox="0 0 379 123" style="enable-background:new 0 0 379 123;" xml:space="preserve">
<style type="text/css">
	.st0{fill-rule:evenodd;clip-rule:evenodd;fill:#0FCCEA;}
	.st1{fill-rule:evenodd;clip-rule:evenodd;fill:#A7A9AC;}
</style>
<g>
	<path class="st0" d="M69.8,82.8c-0.6-1-1.5-2.2-3.1-4.7C56.5,63.2,47,51.8,39.2,42.4c-1.2-1.4-2.1-2.5-2.5-3
		C10.5,11.5-11,9.1,6.8,46.1c-15.4,22.1,29.9,80.6,54.7,68.7C89.6,135,86.4,110.3,69.8,82.8z M14.3,32.1c4-3.1,14.5,3.3,26.3,15.2
		c-10.1-7.1-20.3-9.9-27.5-6.8C12.2,36.4,12.6,33.4,14.3,32.1z M25.6,90.2L25.6,90.2C17.8,80,13.9,68.8,14.7,60.4
		c9.8,16.3,26.7,37.1,39.7,48.5C45.6,108.7,34.3,101.7,25.6,90.2z M62.3,106.6c-0.5,0.4-1,0.7-1.6,1C46.5,97.2,25,69.7,17.4,52.6h0
		c5.8-7.1,15.5-5.2,25.5,1.4C30.9,67.7,48.1,88.9,64,80.2C68.7,91.5,68.4,101.9,62.3,106.6z M76,112.9c-1.9,1.5-5.4,0.8-9.8-1.7
		c5.4-6.2,5.5-17.5,0.8-29.7C76.3,97,80.3,109.7,76,112.9z"/>
	<path class="st1" d="M151.3,99.3c-0.1-2.1-0.3-4.7-0.3-6.5h0c-1,3.3-3.3,9.6-4.6,13H145c-1.2-3.6-3.4-9.4-4.2-13h-0.1
		c-0.1,3.4-0.4,9.5-0.7,13.1h-1.9l1.1-15.1h2.5c1.1,3.2,3.4,9.3,4.1,12.4h0c0.7-3,3.2-9.3,4.3-12.4h2.5l0.9,15.1h-1.9L151.3,99.3
		L151.3,99.3z M178.6,99.7c-0.6-1.8-1.9-5.3-2.3-7.1h0c-0.4,1.8-1.7,5.3-2.3,7.1L178.6,99.7L178.6,99.7z M173.6,101.2l-1.6,4.7h-2
		l5.1-15.1h2.3l5.1,15.1h-2.1l-1.6-4.7L173.6,101.2L173.6,101.2z M210.9,105.3c-16,6.2-16.7-19.1-0.4-13.9L210,93
		c-11.6-4.9-12.8,14.8-1,11.1v-4.5h-3.1V98h5L210.9,105.3L210.9,105.3z M228.7,106V90.9h2.1c1.9,3.1,6.2,9.4,7.5,12.5l0.1,0
		c-0.3-3.6-0.2-8.9-0.2-12.5h1.8v15.1h-2c-2-3.3-6-9.3-7.6-12.7l-0.1,0c0.2,3.1,0.1,9.2,0.1,12.7L228.7,106L228.7,106z M266.1,98.9
		h-5.8v5.4h6.5v1.6h-8.5V90.9h8.2v1.7h-6.2v4.8h5.8C266.1,97.3,266.1,98.9,266.1,98.9z M287.4,92.5h-4.6v-1.7h11.2v1.7h-4.6V106h-2
		L287.4,92.5L287.4,92.5z M310.4,106V90.9h2v15.1L310.4,106L310.4,106z M341.2,105.5c-15.1,5.6-15.1-19.4,0-14.2l-0.5,1.6
		c-11.7-4.7-11.8,15.9,0.1,11L341.2,105.5L341.2,105.5z M358.3,103.6c4.1,3.2,10.5-2,3.8-4.6c-8.3-2.7-2-11.2,4.2-7.6l-0.5,1.6
		c-4.4-2.7-8.8,2.5-2.7,4.5c8.5,3.1,1.4,12-5.3,7.8C357.7,105.2,358.3,103.6,358.3,103.6z"/>
	<path class="st0" d="M136.8,23.5h13.3v47.8h23.5v11.2h-36.8V23.5z M207.2,56.2c0.4-11.6-15.1-11.3-15.8,0H207.2L207.2,56.2z
		 M191.5,65.3c0.8,10.2,16.9,8.9,23.9,6.3l1.8,9c-43.6,16.7-51.9-39.5-16.8-42c16.1-0.1,20.7,14.8,18.7,26.6
		C219.1,65.3,191.5,65.3,191.5,65.3z M235.9,39.7c2,7.1,7.1,23.4,8.2,30.3h0.3c1.2-6.9,6-23.3,7.9-30.3h14l-15.9,42.9h-13.3
		l-15.6-42.8L235.9,39.7L235.9,39.7z M273.6,82.5V39.7h13.3v42.8C286.9,82.5,273.6,82.5,273.6,82.5z M273.6,34.4V21.1h13.3v13.3
		L273.6,34.4L273.6,34.4z M313.6,28.1v11.6h9.5v9.8h-9.5V65c-0.5,7.4,4.2,8.3,9.2,7.2l0.1,10.1C297,89,300.4,67.7,300.5,49.5h-5.7
		v-9.8h5.7v-8L313.6,28.1L313.6,28.1z M354.7,62.3c-12.7-1.3-17.1,10.4-7.2,11.8C354.1,74.1,355.2,67.6,354.7,62.3z M367.5,72.2
		c0,4,0.2,8,0.7,10.3h-12l-0.8-4.3h-0.3c-26.6,21-41.5-26.2-1-24.3c1.3-8.6-15.2-6.4-19.6-2.9l-2.5-8.6c13.4-7.3,36.9-5.3,35.4,14.7
		C367.5,57.2,367.5,72.2,367.5,72.2L367.5,72.2z M373.3,44.7c2.8,0.4,2.8-1.8,0-1.4L373.3,44.7L373.3,44.7z M372.6,47.4v-4.8
		c0.7,0,2.3-0.1,2.8,0.1c1.4,0.5,0.9,2.5-0.5,2.5c0.7,0.3,1.2,1.4,1.7,2.1h-0.9c-0.5-0.9-1-2.3-2.3-2v2L372.6,47.4L372.6,47.4z
		 M374.5,41.2c-6.1,0.2-3.6,9.8,1.8,6.9C379.6,46.4,378.2,41.1,374.5,41.2z M374.5,40.5c7.3,0.2,4.3,11.7-2.2,8.3
		C368.4,46.7,370.1,40.4,374.5,40.5z"/>
	<path class="st0" d="M102.8,83.5C121,62.9,76.9,3.3,51.5,12.2C20.7-15,17.2,6.4,37,39.2c0.4,0.5,1.2,1.7,2.2,3.3
		c6.9,10.1,15.3,22.3,26.9,36.1c1.9,2.3,2.9,3.4,3.7,4.3C91.7,106.2,114.7,116,102.8,83.5z M44.5,16.8c-4.9,6.1-5.1,16.7-1,28.4
		C35.2,30.5,31.9,18.8,36,15.7C37.7,14.4,40.7,14.8,44.5,16.8z M99.1,75c-7.4-15.6-22.8-37.5-35.9-51.3c8.2,1.6,18,8.3,25.7,18.6
		l0,0C97.6,53.8,101.2,66.6,99.1,75z M68.9,76.5c12.7-12.9-3.1-35.2-19.5-27.5c-3.6-11.4-2.8-21.2,5.6-24.9l0,0
		C69.3,36.2,90,64.3,96,80.8c-0.4,0.5-0.9,0.9-1.4,1.2C88.6,86.6,78.4,84.1,68.9,76.5z M69.3,79.8c10.5,7.8,21.4,10.8,28.8,7.3
		c1.2,4.9,1,8.4-1,9.9C92.8,100.2,81.6,92.9,69.3,79.8z"/>
</g>
</svg>
